# Blender 3.3.1
# www.blender.org
mtllib hook.mtl
o Cube.001
v 0.070270 0.663016 0.070270
v -0.070270 0.663016 0.070270
v 0.070270 0.663016 -0.070270
v -0.070270 0.663016 -0.070270
v 0.070270 0.132603 0.070270
v 0.070270 0.397810 0.070270
v -0.070270 0.397810 0.070270
v -0.070270 0.132603 0.070270
v -0.070270 0.397810 -0.070270
v -0.070270 0.132603 -0.070270
v 0.070270 0.397810 -0.070270
v 0.070270 0.132603 -0.070270
v 0.011794 -0.004743 0.070270
v -0.088359 0.093850 0.070270
v -0.088359 0.093850 -0.070270
v 0.011794 -0.004743 -0.070270
v -0.225558 -0.211469 0.070270
v -0.325711 -0.112876 0.070270
v -0.325711 -0.112876 -0.070270
v -0.225558 -0.211469 -0.070270
v -0.235253 -0.245179 0.070270
v -0.375737 -0.249141 0.070270
v -0.375737 -0.249141 -0.070270
v -0.235253 -0.245179 -0.070270
v -0.230659 -0.589722 0.070270
v -0.371143 -0.593684 0.070270
v -0.371143 -0.593684 -0.070270
v -0.230659 -0.589722 -0.070270
v -0.203588 -0.638037 0.070270
v -0.297148 -0.760788 0.070270
v -0.297148 -0.760788 -0.070270
v -0.203588 -0.638037 -0.070270
v 0.268087 -0.640334 0.070270
v 0.269223 -0.763085 0.070270
v 0.269223 -0.763085 -0.070270
v 0.268087 -0.640334 -0.070270
v 0.144779 -0.639958 0.070270
v 0.180862 -0.762776 0.070270
v 0.180862 -0.762776 -0.070270
v 0.144779 -0.639958 -0.070270
v 0.269223 -0.415849 -0.070270
v 0.269223 -0.415849 0.070270
v 0.145915 -0.415473 -0.070270
v 0.145915 -0.415473 0.070270
v 0.177235 0.132603 0.177235
v 0.177235 0.397810 0.177235
v -0.177235 0.397810 0.177235
v -0.177235 0.132603 0.177235
v -0.177235 0.397810 -0.177235
v -0.177235 0.132603 -0.177235
v 0.177235 0.397810 -0.177235
v 0.177235 0.132603 -0.177235
vn -0.0000 -0.0000 1.0000
vn -1.0000 -0.0000 -0.0000
vn -0.0000 -0.0000 -1.0000
vn 1.0000 -0.0000 -0.0000
vn -0.0000 1.0000 -0.0000
vn -0.0000 -1.0000 -0.0000
vn -0.9061 0.4230 -0.0000
vn 0.9201 -0.3917 -0.0000
vn 0.6568 -0.7541 -0.0000
vn -0.6568 0.7541 -0.0000
vn -0.9387 0.3446 -0.0000
vn 0.9610 -0.2764 -0.0000
vn -0.9999 -0.0133 -0.0000
vn 0.9999 0.0133 -0.0000
vn 0.8724 0.4888 -0.0000
vn -0.9144 -0.4049 -0.0000
vn -0.0035 -1.0000 -0.0000
vn -1.0000 0.0051 -0.0000
vn 1.0000 0.0093 -0.0000
vn 0.0055 1.0000 -0.0000
vn -0.0042 -1.0000 -0.0000
vn 0.0030 1.0000 -0.0000
vn 1.0000 -0.0051 -0.0000
vt 0.625000 0.000000
vt 0.625000 1.000000
vt 0.875000 0.750000
vt 0.625000 0.250000
vt 0.875000 0.500000
vt 0.625000 0.750000
vt 0.625000 0.500000
vt 0.525000 1.000000
vt 0.525000 0.000000
vt 0.575000 0.000000
vt 0.575000 1.000000
vt 0.575000 0.250000
vt 0.525000 0.250000
vt 0.575000 0.500000
vt 0.525000 0.500000
vt 0.575000 0.750000
vt 0.525000 0.750000
vt 0.525000 1.000000
vt 0.525000 0.000000
vt 0.525000 0.250000
vt 0.525000 0.500000
vt 0.525000 0.750000
vt 0.525000 0.000000
vt 0.525000 1.000000
vt 0.525000 0.250000
vt 0.525000 0.500000
vt 0.525000 0.750000
vt 0.525000 1.000000
vt 0.525000 0.000000
vt 0.525000 0.250000
vt 0.525000 0.500000
vt 0.525000 0.750000
vt 0.525000 1.000000
vt 0.525000 0.000000
vt 0.525000 0.250000
vt 0.525000 0.500000
vt 0.525000 0.750000
vt 0.525000 1.000000
vt 0.525000 0.000000
vt 0.525000 0.250000
vt 0.525000 0.500000
vt 0.525000 0.750000
vt 0.525000 0.000000
vt 0.525000 0.250000
vt 0.525000 0.500000
vt 0.525000 0.750000
vt 0.525000 1.000000
vt 0.525000 0.000000
vt 0.525000 0.250000
vt 0.525000 0.500000
vt 0.525000 0.750000
vt 0.525000 0.750000
vt 0.525000 1.000000
vt 0.525000 0.000000
vt 0.525000 0.750000
vt 0.525000 1.000000
vt 0.525000 0.000000
vt 0.525000 1.000000
vt 0.525000 0.000000
vt 0.575000 0.000000
vt 0.575000 1.000000
vt 0.575000 0.250000
vt 0.525000 0.250000
vt 0.575000 0.500000
vt 0.525000 0.500000
vt 0.575000 0.750000
vt 0.525000 0.750000
s 0
f 6/10/1 1/1/1 2/4/1 7/12/1
f 7/12/2 2/4/2 4/7/2 9/14/2
f 9/14/3 4/7/3 3/6/3 11/16/3
f 11/16/4 3/6/4 1/2/4 6/11/4
f 4/7/5 2/5/5 1/3/5 3/6/5
f 7/12/5 9/14/5 49/64/5 47/62/5
f 6/10/5 7/12/5 47/62/5 46/60/5
f 5/8/6 12/17/6 52/67/6 45/58/6
f 12/17/6 10/15/6 50/65/6 52/67/6
f 5/9/1 8/13/1 14/20/1 13/19/1
f 8/13/7 10/15/7 15/21/7 14/20/7
f 10/15/3 12/17/3 16/22/3 15/21/3
f 12/17/8 5/8/8 13/18/8 16/22/8
f 16/22/9 13/18/9 17/24/9 20/27/9
f 13/19/1 14/20/1 18/25/1 17/23/1
f 15/21/3 16/22/3 20/27/3 19/26/3
f 14/20/10 15/21/10 19/26/10 18/25/10
f 17/23/1 18/25/1 22/30/1 21/29/1
f 19/26/3 20/27/3 24/32/3 23/31/3
f 18/25/11 19/26/11 23/31/11 22/30/11
f 20/27/12 17/24/12 21/28/12 24/32/12
f 22/30/13 23/31/13 27/36/13 26/35/13
f 24/32/14 21/28/14 25/33/14 28/37/14
f 21/29/1 22/30/1 26/35/1 25/34/1
f 23/31/3 24/32/3 28/37/3 27/36/3
f 28/37/15 25/33/15 29/38/15 32/42/15
f 25/34/1 26/35/1 30/40/1 29/39/1
f 27/36/3 28/37/3 32/42/3 31/41/3
f 26/35/16 27/36/16 31/41/16 30/40/16
f 37/48/1 38/49/1 34/44/1 33/43/1
f 39/50/3 40/51/3 36/46/3 35/45/3
f 38/49/17 39/50/17 35/45/17 34/44/17
f 40/51/18 37/47/18 44/56/18 43/55/18
f 36/46/19 33/43/19 34/44/19 35/45/19
f 32/42/20 29/38/20 37/47/20 40/51/20
f 30/40/21 31/41/21 39/50/21 38/49/21
f 31/41/3 32/42/3 40/51/3 39/50/3
f 29/39/1 30/40/1 38/49/1 37/48/1
f 43/55/22 44/56/22 42/53/22 41/52/22
f 37/48/1 33/43/1 42/54/1 44/57/1
f 33/43/23 36/46/23 41/52/23 42/54/23
f 36/46/3 40/51/3 43/55/3 41/52/3
f 52/67/4 51/66/4 46/61/4 45/58/4
f 50/65/3 49/64/3 51/66/3 52/67/3
f 48/63/2 47/62/2 49/64/2 50/65/2
f 45/59/1 46/60/1 47/62/1 48/63/1
f 9/14/5 11/16/5 51/66/5 49/64/5
f 11/16/5 6/11/5 46/61/5 51/66/5
f 8/13/6 5/9/6 45/59/6 48/63/6
f 10/15/6 8/13/6 48/63/6 50/65/6
